<?xml version="1.0" standalone="no"?>
<!DOCTYPE svg PUBLIC "-//W3C//DTD SVG 20010904//EN"
 "http://www.w3.org/TR/2001/REC-SVG-20010904/DTD/svg10.dtd">
<svg version="1.0" xmlns="http://www.w3.org/2000/svg"
 width="290.000000pt" height="290.000000pt" viewBox="0 0 290.000000 290.000000"
 preserveAspectRatio="xMidYMid meet">
<metadata>
Created by potrace 1.11, written by Peter Selinger 2001-2013
</metadata>
<g transform="translate(0.000000,290.000000) scale(0.100000,-0.100000)"
fill="#000000" stroke="none">
<path d="M1335 2884 c-514 -52 -952 -351 -1171 -799 -88 -181 -129 -332 -143
-525 -25 -355 77 -699 288 -975 67 -86 200 -229 207 -222 3 3 14 117 24 253
11 137 25 276 31 309 13 70 47 140 84 175 l27 25 -2 -295 c-1 -162 1 -347 4
-410 7 -113 1 -150 -23 -136 -6 4 -11 23 -11 42 0 37 -19 83 -43 103 -18 14
-33 -2 -20 -21 4 -7 8 -35 8 -62 l0 -50 70 -46 c62 -41 133 -77 300 -150 27
-12 111 -35 187 -50 l138 -27 51 25 52 26 23 -29 22 -28 104 6 c125 8 279 38
373 72 106 39 265 117 334 164 61 42 62 43 55 79 -4 20 -8 39 -10 41 -2 2 4
13 13 23 11 13 13 22 6 29 -18 18 -62 -46 -69 -101 -7 -53 -17 -62 -34 -31
-13 26 -12 107 4 212 9 60 10 117 5 185 -4 55 -8 172 -9 262 0 159 0 162 20
152 25 -13 68 -87 86 -147 8 -26 24 -171 36 -322 11 -152 23 -278 25 -280 6
-7 98 86 168 169 153 183 259 402 311 640 26 120 27 439 1 560 -63 296 -186
522 -401 735 -221 220 -468 350 -761 400 -92 16 -289 26 -360 19z m889 -726
c9 -29 20 -82 25 -118 16 -102 35 -451 28 -491 -7 -33 -9 -35 -50 -37 -86 -5
-1573 -112 -1594 -115 -12 -2 -24 2 -27 9 -15 38 -49 528 -44 624 l3 65 40 3
c440 34 1487 110 1537 111 l67 1 15 -52z m137 -88 c20 -80 43 -385 34 -449
-11 -79 -12 -81 -57 -81 l-41 0 6 38 c8 43 -19 445 -33 506 -14 59 -14 57 33
54 l42 -3 16 -65z m-1831 -92 c0 -35 26 -389 36 -500 l7 -68 -41 0 c-39 0 -42
2 -51 38 -11 40 -41 400 -41 494 0 61 4 66 58 67 30 1 32 -1 32 -31z m1618
-1080 l2 -298 -705 0 -705 0 0 285 0 285 600 0 c531 0 601 2 607 15 4 13 23
15 102 13 l96 -3 3 -297z"/>
<path d="M1860 1978 c-44 -30 -80 -92 -80 -138 0 -59 38 -122 90 -147 55 -28
92 -29 144 -3 110 54 124 210 25 280 -49 36 -133 39 -179 8z m159 -37 c29 -16
51 -63 51 -112 0 -35 -6 -48 -39 -80 -33 -33 -45 -39 -82 -39 -76 0 -128 50
-129 123 -1 108 98 162 199 108z"/>
<path d="M842 1917 c-48 -15 -99 -77 -107 -129 -8 -55 15 -118 57 -153 117
-99 292 8 264 161 -9 47 -68 111 -114 124 -44 12 -56 11 -100 -3z m108 -42
c48 -25 70 -62 70 -117 0 -43 -5 -55 -33 -83 -61 -61 -154 -53 -197 17 -38 62
-22 134 39 175 39 27 80 29 121 8z"/>
<path d="M1623 1728 c-108 -60 -271 -73 -398 -30 -61 21 -89 16 -66 -12 21
-25 102 -47 196 -53 73 -5 107 -2 174 16 96 24 174 65 169 88 -5 25 -19 23
-75 -9z"/>
</g>
</svg>
