<?xml version="1.0" standalone="no"?>
<!DOCTYPE svg PUBLIC "-//W3C//DTD SVG 20010904//EN"
 "http://www.w3.org/TR/2001/REC-SVG-20010904/DTD/svg10.dtd">
<svg version="1.0" xmlns="http://www.w3.org/2000/svg"
 width="260.000000pt" height="260.000000pt" viewBox="0 0 260.000000 260.000000"
 preserveAspectRatio="xMidYMid meet">
<metadata>
Created by potrace 1.11, written by Peter Selinger 2001-2013
</metadata>
<g transform="translate(0.000000,260.000000) scale(0.100000,-0.100000)"
fill="#000000" stroke="none">
<path d="M1105 2568 c-3 -7 -21 -76 -40 -152 -19 -76 -36 -140 -37 -141 -2 -1
-28 -10 -58 -19 -118 -38 -264 -122 -350 -203 l-46 -42 -82 24 c-45 13 -112
32 -150 43 l-69 20 -89 -156 c-49 -85 -89 -157 -88 -160 0 -3 49 -53 109 -112
l108 -107 -16 -84 c-19 -101 -16 -308 6 -387 l14 -52 -113 -113 -113 -112 90
-154 c49 -85 90 -156 92 -157 1 -1 69 17 150 40 l148 43 37 -34 c97 -88 296
-200 391 -219 27 -6 30 -11 60 -133 18 -69 36 -137 40 -151 l8 -25 183 0 184
0 23 90 c23 93 26 104 38 168 4 22 14 41 24 43 144 44 300 129 395 215 l49 45
46 -12 c25 -7 93 -26 151 -43 57 -16 105 -29 106 -28 1 1 42 73 91 159 l91
157 -113 108 -113 108 15 65 c22 101 23 280 3 379 l-18 84 109 105 c60 58 109
110 109 115 0 10 -101 190 -156 279 l-23 36 -148 -43 -148 -44 -29 27 c-17 15
-36 33 -44 40 -61 56 -229 148 -324 178 -65 20 -60 12 -98 169 -12 50 -26 105
-32 123 l-10 32 -179 0 c-135 0 -181 -3 -184 -12z m324 -95 c6 -21 15 -58 21
-83 6 -25 12 -52 14 -60 31 -120 23 -109 85 -126 131 -38 292 -130 384 -220
l49 -47 136 37 c76 21 141 39 146 39 4 1 37 -48 72 -109 l65 -110 -107 -105
-106 -105 19 -90 c28 -128 29 -247 3 -374 l-21 -106 106 -105 107 -105 -65
-109 c-35 -61 -68 -110 -73 -109 -5 1 -70 18 -144 39 l-135 37 -50 -47 c-100
-94 -254 -182 -386 -220 l-57 -16 -22 -87 c-12 -48 -23 -94 -25 -102 -16 -82
-26 -100 -53 -101 -72 -2 -224 1 -231 5 -6 4 -26 74 -36 126 0 3 -9 39 -19 82
l-19 76 -46 13 c-135 37 -266 109 -383 211 l-68 59 -72 -20 c-40 -11 -104 -29
-141 -40 l-68 -20 -33 52 c-18 29 -47 79 -65 112 l-33 61 107 105 107 105 -15
59 c-9 33 -18 78 -22 100 -7 48 -8 210 0 245 3 14 8 39 11 55 2 17 10 48 16
70 l10 40 -107 102 c-64 60 -106 107 -102 115 2 7 31 58 64 114 l58 101 135
-39 c74 -21 140 -38 145 -38 6 0 30 19 55 42 110 100 224 167 363 212 l83 28
28 111 c15 62 32 127 38 145 l10 32 128 0 129 0 10 -37z"/>
<path d="M1118 2019 c-385 -93 -628 -472 -554 -863 67 -349 384 -604 738 -595
235 6 432 106 575 291 53 69 106 179 130 268 23 88 23 271 -1 359 -72 266
-269 465 -531 537 -90 24 -263 26 -357 3z m343 -70 c272 -75 470 -308 495
-583 l7 -74 -89 18 c-49 10 -107 21 -128 24 -22 4 -71 13 -110 21 -39 8 -74
15 -78 15 -3 0 -16 19 -27 43 -27 56 -79 106 -143 137 l-51 25 -64 185 c-34
102 -63 191 -63 198 0 20 169 14 251 -9z m-264 -180 c34 -96 62 -179 62 -185
1 -6 -20 -17 -46 -25 l-48 -14 -62 180 c-35 99 -61 184 -60 189 4 11 67 36 82
32 5 -1 37 -81 72 -177z m-157 -77 l65 -187 -32 -48 c-53 -79 -66 -162 -39
-238 13 -36 12 -36 -42 -100 -110 -129 -158 -184 -188 -218 l-31 -35 -32 44
c-163 226 -162 554 2 780 22 30 59 72 81 94 49 46 138 108 145 100 3 -2 35
-89 71 -192z m363 -229 c56 -39 82 -93 82 -170 0 -52 -5 -68 -30 -104 -93
-132 -276 -116 -350 30 -32 63 -15 163 38 220 62 67 183 79 260 24z m218 -178
c19 -3 95 -17 169 -32 74 -14 141 -26 148 -26 13 0 15 -36 3 -77 -8 -28 -13
-28 -91 -13 -30 6 -107 21 -170 33 -63 12 -120 23 -127 25 -9 3 -9 14 -2 42
15 59 18 65 27 59 5 -3 24 -8 43 -11z m-31 -169 c41 -8 86 -17 100 -19 127
-24 206 -41 213 -47 11 -10 -31 -93 -79 -156 -131 -173 -329 -269 -549 -266
-58 1 -108 7 -150 18 -53 14 -155 57 -155 64 0 7 44 65 60 80 3 3 35 39 70 80
35 41 69 80 75 86 6 7 23 25 36 41 22 26 34 31 90 35 70 6 132 32 170 72 28
30 24 30 119 12z m-461 -36 l33 -28 -124 -144 c-68 -79 -127 -145 -131 -148
-8 -5 -77 47 -77 58 0 4 15 23 33 42 17 20 57 65 87 100 30 36 69 81 87 100
18 19 33 38 33 43 0 15 26 5 59 -23z"/>
<path d="M1245 1346 c-32 -32 -32 -60 1 -92 19 -20 31 -24 52 -19 38 9 55 29
55 64 0 60 -66 89 -108 47z"/>
</g>
</svg>
