<?xml version="1.0" standalone="no"?>
<!DOCTYPE svg PUBLIC "-//W3C//DTD SVG 20010904//EN"
 "http://www.w3.org/TR/2001/REC-SVG-20010904/DTD/svg10.dtd">
<svg version="1.0" xmlns="http://www.w3.org/2000/svg"
 width="260.000000pt" height="260.000000pt" viewBox="0 0 260.000000 260.000000"
 preserveAspectRatio="xMidYMid meet">
<metadata>
Created by potrace 1.11, written by Peter Selinger 2001-2013
</metadata>
<g transform="translate(0.000000,260.000000) scale(0.100000,-0.100000)"
fill="#000000" stroke="none">
<path d="M1095 2522 c-67 -15 -88 -67 -119 -300 -3 -19 -6 -35 -8 -36 -2 -1
-16 -7 -31 -14 -27 -11 -33 -8 -133 68 -99 75 -120 85 -169 80 -42 -4 -105
-53 -220 -172 -170 -174 -174 -197 -55 -344 35 -44 67 -84 72 -90 5 -6 2 -27
-7 -47 -12 -28 -22 -37 -47 -42 -70 -11 -94 -15 -133 -20 -22 -3 -49 -8 -60
-10 -11 -2 -24 -4 -30 -4 -20 -2 -66 -50 -74 -78 -4 -15 -7 -116 -7 -223 1
-172 3 -199 19 -224 22 -33 63 -52 136 -60 30 -4 64 -9 75 -11 12 -3 38 -7 59
-9 44 -4 41 -1 61 -49 l15 -38 -76 -100 c-73 -95 -77 -102 -76 -150 1 -38 8
-59 29 -87 41 -54 244 -251 278 -269 56 -29 103 -14 214 71 l102 76 34 -14
c31 -13 34 -18 41 -72 4 -32 8 -65 10 -74 1 -8 6 -35 9 -60 11 -82 21 -104 57
-125 31 -18 53 -20 234 -21 174 -1 205 1 236 17 47 23 66 73 84 214 3 28 8 59
10 70 2 11 4 25 4 30 1 6 15 16 33 23 31 12 34 10 131 -65 164 -125 191 -119
400 96 162 167 165 191 51 338 -37 48 -72 91 -76 94 -11 7 23 90 36 87 6 -1
36 2 66 7 30 4 64 9 75 11 179 25 182 31 183 298 0 162 -2 199 -16 227 -19 39
-66 65 -132 73 -25 3 -54 8 -65 10 -11 2 -42 7 -70 10 -47 7 -51 10 -67 48
l-18 41 75 99 c41 54 75 104 76 111 0 7 2 21 4 32 8 43 -35 106 -152 224 -127
127 -154 148 -193 151 -55 4 -71 -3 -173 -80 l-106 -79 -34 14 c-33 14 -35 17
-43 82 -4 37 -8 70 -9 73 0 3 -4 28 -8 55 -11 69 -23 97 -55 120 -25 18 -43
20 -227 21 -110 0 -209 -1 -220 -4z m371 -182 c4 -30 8 -64 10 -75 2 -11 7
-38 10 -60 16 -117 17 -119 57 -132 21 -7 62 -24 93 -38 30 -14 61 -25 70 -25
8 0 66 39 130 87 l115 86 46 -44 c92 -87 172 -174 173 -187 0 -7 -33 -54 -73
-105 -105 -131 -101 -117 -56 -222 21 -50 39 -95 39 -102 0 -17 9 -21 86 -33
38 -6 79 -13 90 -15 12 -2 47 -6 78 -10 42 -6 56 -11 56 -24 1 -29 1 -225 1
-263 l-1 -36 -67 -11 c-38 -7 -86 -14 -108 -16 -43 -5 -90 -14 -117 -21 -9 -3
-19 -17 -23 -32 -4 -15 -22 -59 -40 -99 l-33 -72 27 -43 c15 -24 56 -78 90
-121 l62 -78 -28 -32 c-50 -56 -173 -176 -190 -186 -13 -7 -31 2 -77 37 -84
67 -170 132 -173 132 -1 0 -37 -15 -80 -34 -43 -19 -90 -38 -105 -41 -22 -6
-28 -13 -29 -34 0 -14 -2 -33 -4 -42 -1 -8 -6 -42 -10 -75 -3 -32 -11 -81 -16
-108 -5 -27 -9 -50 -9 -52 0 -2 -71 -4 -159 -4 l-158 0 -7 48 c-23 170 -40
262 -50 262 -6 0 -51 18 -101 39 -66 29 -95 37 -108 30 -9 -6 -63 -46 -119
-89 -99 -77 -103 -79 -122 -62 -11 9 -57 52 -101 94 -85 81 -116 124 -99 136
5 4 41 48 79 97 39 50 73 91 77 93 15 7 8 34 -26 105 -19 40 -37 87 -41 104
-4 18 -8 33 -9 33 -1 0 -27 4 -57 10 -30 5 -74 12 -99 15 -56 7 -110 15 -132
22 -16 4 -18 20 -18 158 0 173 -7 159 85 170 57 7 87 11 164 25 30 6 55 10 56
10 1 0 8 19 15 43 7 23 25 67 40 98 35 68 34 69 -76 206 l-75 94 30 37 c36 46
188 192 199 192 5 0 58 -38 118 -85 124 -98 113 -96 244 -42 l85 35 11 79 c7
43 15 98 18 123 4 25 8 54 10 65 3 11 5 25 5 30 1 6 61 10 161 10 l159 0 7
-55z"/>
<path d="M1203 1744 c-85 -17 -158 -57 -223 -123 -160 -160 -179 -415 -44
-591 66 -86 128 -131 224 -161 77 -24 191 -26 268 -5 225 61 364 296 316 532
-17 87 -57 159 -125 226 -110 111 -259 154 -416 122z m228 -153 c173 -82 238
-305 135 -462 -25 -36 -136 -133 -144 -124 -2 2 -18 -2 -35 -9 -50 -21 -156
-13 -213 15 -125 61 -194 173 -189 306 5 132 109 260 240 294 49 13 158 2 206
-20z"/>
</g>
</svg>
