<svg xmlns="http://www.w3.org/2000/svg" viewBox="0 0 261.95 183.58"><defs><style>.cls-1,.cls-3{fill:#fff;}.cls-1,.cls-2,.cls-3,.cls-4,.cls-5{stroke:#000;stroke-miterlimit:10;}.cls-1,.cls-2{stroke-width:5px;}.cls-3,.cls-4,.cls-5{stroke-width:4px;}.cls-4{fill:none;}</style></defs><title>aAsset 6</title><g id="Layer_2" data-name="Layer 2"><g id="Front"><ellipse cx="130.75" cy="158.74" rx="130.75" ry="24.84"/><path class="cls-1" d="M3.75,153.77,93,27.66a6,6,0,0,1,4.86-2.51l68.16,0a5.93,5.93,0,0,1,4.87,2.55l87.53,126A5.94,5.94,0,0,1,253.5,163l-244.9.1A5.94,5.94,0,0,1,3.75,153.77Z"/><polygon class="cls-2" points="153.58 15.7 109.17 15.7 107.93 22.2 154.91 22.2 153.58 15.7"/><path d="M131,0,109.19,16.2h43.68Zm1.5,4.85,11.26,8.35H132.53Zm-3,0V13.2H118.27Z"/><path class="cls-3" d="M161.16,105.32H102a4.29,4.29,0,0,1-4.26-4.85l9.41-43a4.06,4.06,0,0,1,4-3.52h40.68a3.79,3.79,0,0,1,3.75,3.23l10.13,42.88A4.58,4.58,0,0,1,161.16,105.32Z"/><polygon class="cls-3" points="75 70.42 93.64 73.42 100.92 49.49 88.74 49.64 75 70.42"/><polygon class="cls-3" points="187.18 69.41 168.54 72.41 161.25 48.49 173.44 48.64 187.18 69.41"/><circle class="cls-3" cx="131.45" cy="74.14" r="11.69"/><line class="cls-4" x1="107.24" y1="116.37" x2="103.7" y2="142.45"/><line class="cls-4" x1="174.65" y1="88.71" x2="181.67" y2="111.2"/><circle class="cls-5" cx="122.52" cy="148.73" r="3.52"/><circle class="cls-5" cx="141.52" cy="148.73" r="3.52"/><line class="cls-4" x1="157.5" y1="116.37" x2="161.04" y2="142.45"/></g></g></svg>