<?xml version="1.0" encoding="UTF-8"?>
<svg width="353px" height="123px" viewBox="0 0 353 123" version="1.1" xmlns="http://www.w3.org/2000/svg" xmlns:xlink="http://www.w3.org/1999/xlink">
    <!-- Generator: Sketch 55.2 (78181) - https://sketchapp.com -->
    <title>mhw</title>
    <desc>Created with Sketch.</desc>
    <g id="mhw" stroke="none" stroke-width="1" fill="none" fill-rule="evenodd">
        <g id="M" fill="#000000">
            <polygon id="Rectangle" points="0 20.852459 20 20.852459 20 122 0 122"></polygon>
            <polygon id="Rectangle" points="102 20.852459 122 20.852459 122 122 102 122"></polygon>
            <polygon id="Rectangle" points="51 20.852459 71 20.852459 71 121.852459 51 121.852459"></polygon>
            <path d="M20,0 L122,0 L122,21 L0,21 L0,20 C-1.3527075e-15,8.954305 8.954305,2.02906125e-15 20,0 Z" id="Rectangle"></path>
        </g>
        <g id="M" transform="translate(292.000000, 61.000000) rotate(180.000000) translate(-292.000000, -61.000000) translate(231.000000, 0.000000)" fill="#000000">
            <polygon id="Rectangle" points="0 20.852459 20 20.852459 20 122 0 122"></polygon>
            <polygon id="Rectangle" points="102 20.852459 122 20.852459 122 122 102 122"></polygon>
            <polygon id="Rectangle" points="51 20.852459 71 20.852459 71 121.852459 51 121.852459"></polygon>
            <path d="M20,0 L122,0 L122,21 L0,21 L0,20 C-1.3527075e-15,8.954305 8.954305,2.02906125e-15 20,0 Z" id="Rectangle"></path>
        </g>
        <rect id="Rectangle" fill="#000000" x="150" y="51" width="53" height="20"></rect>
        <polygon id="Rectangle" fill="#000000" points="130 0.147540984 150 0.147540984 150 122.147541 130 122.147541"></polygon>
        <polygon id="Rectangle" fill="#000000" points="203 3.40264463e-15 223 3.40264463e-15 223 122 203 122"></polygon>
    </g>
</svg>