<svg xmlns="http://www.w3.org/2000/svg" viewBox="0 0 282.18 470.32"><defs><style>.a{fill:#d5e3ef;}.b{fill:#b0c4d9;}.c{fill:#f44e4a;}.d{fill:#ffb000;}.e{fill:#99b4cd;}.f{fill:#6c9abb;}.g{fill:#70b7e5;}.h{fill:#924eea;}.i{fill:#4c9cd6;}.j{fill:#7e00ff;}.k{fill:#ecf0f9;}.l{fill:#c394ff;}</style></defs><title>rocket</title><path class="a" d="M322,278.66H192V172.51a243.75,243.75,0,0,1,45-141.36l8.13-11.38,1.62-1.62h0a13.73,13.73,0,0,1,19.5,0h0l1.63,1.62L277,31.15a242.84,242.84,0,0,1,45,140.27Z" transform="translate(-116.16 -13.61)"/><path class="b" d="M284.05,123.76v154.9H322V172.5A240.37,240.37,0,0,0,277,32.23l-8.12-12.46-1.63-1.62a12.65,12.65,0,0,0-9.2-3.79A241.25,241.25,0,0,1,284.05,123.76Z" transform="translate(-116.16 -13.61)"/><path class="c" d="M376.13,327.4a12,12,0,0,0-11.92,11.92c0,8.66,10.84,24.91,10.84,26l.54.55s1.08,0,.54-.55c.54-.54,10.83-16.24,10.83-26C388.05,331.73,383.17,326.86,376.13,327.4Z" transform="translate(-116.16 -13.61)"/><path class="c" d="M137.83,327.4a12,12,0,0,0-11.92,11.92c0,8.67,10.29,24.37,10.83,24.91l.54.55s1.09,0,.55-.55c.54-.54,10.83-16.24,10.83-26C149.74,331.74,144.87,326.86,137.83,327.4Z" transform="translate(-116.16 -13.61)"/><path class="c" d="M257,369.65a36.07,36.07,0,0,0-35.75,35.74c0,27.08,31.42,74.74,32.5,76.91,1.08,1.08,1.62,1.63,2.71,1.63a9.85,9.85,0,0,0,3.79-2.71c1.08-2.17,33-49.29,32.49-76.91A34.47,34.47,0,0,0,257,369.65Z" transform="translate(-116.16 -13.61)"/><path class="d" d="M255.89,371.81A18,18,0,0,0,238,389.69c0,14.08,15.71,37.37,16.25,37.91s1.08,1.08,1.63.54c1.08,0,1.08,0,1.62-.54,1.08-1.08,16.25-24.91,16.25-37.91A18,18,0,0,0,255.89,371.81Z" transform="translate(-116.16 -13.61)"/><polygon class="e" points="238.31 286.71 205.81 286.71 205.81 221.72 238.31 254.22 238.31 286.71"/><path class="f" d="M332.8,281.91V261.33a36.48,36.48,0,0,0-10.83-26h0v65h32.5V289.49H340.38A7.4,7.4,0,0,1,332.8,281.91Z" transform="translate(-116.16 -13.61)"/><path class="a" d="M397.79,322H354.47V244A21.39,21.39,0,0,1,361,228.83h0a21.41,21.41,0,0,1,30.33,0h0a21.35,21.35,0,0,1,6.5,15.16Z" transform="translate(-116.16 -13.61)"/><path class="b" d="M387,233.16v78H354.47V322h43.32V244a21.35,21.35,0,0,0-6.5-15.16,22.38,22.38,0,0,0-6.5-4.33A15.83,15.83,0,0,1,387,233.16Z" transform="translate(-116.16 -13.61)"/><path class="e" d="M213.65,354.48h0c0-7.58,1.62-14.62,4.87-20l6-12.45h65l6,12.45a45.47,45.47,0,0,1,4.88,20H213.65Z" transform="translate(-116.16 -13.61)"/><path class="f" d="M224.48,322l-5.41,10.83h35.74a22,22,0,0,1,19.5,11.91h0a26,26,0,0,1,3.25,9.75h22.75c0-7.58-1.63-14.62-4.88-20l-6-12.45Z" transform="translate(-116.16 -13.61)"/><polygon class="e" points="43.33 286.71 75.83 286.71 75.83 221.72 43.33 254.22 43.33 286.71"/><path class="f" d="M177.9,289.49a7.4,7.4,0,0,1-7.58-7.58V257l-10.83,10.83v32.49H192c0-6.5-4.33-10.83-10.83-10.83Z" transform="translate(-116.16 -13.61)"/><path class="a" d="M116.16,322h43.33V244a21.42,21.42,0,0,0-6.5-15.17h0c-8.13-8.12-22.21-8.12-30.33,0h0a21.42,21.42,0,0,0-6.5,15.17Z" transform="translate(-116.16 -13.61)"/><circle class="g" cx="256.98" cy="181.17" r="30.64" transform="translate(-169 221.16) rotate(-45)"/><path class="h" d="M284.06,208.25a38.3,38.3,0,1,1,0-54.16A37.92,37.92,0,0,1,284.06,208.25Zm-43.33-43.33a23,23,0,1,0,32.49,0A22.57,22.57,0,0,0,240.73,164.92Z" transform="translate(-116.16 -13.61)"/><path class="i" d="M262.39,203.92a23.6,23.6,0,0,1-10.83-39c3.25-3.25,7-4.87,10.83-6.5-7.58-1.08-15.7.55-21.66,6.5a22.57,22.57,0,0,0,0,32.5C246.69,203.38,254.81,205,262.39,203.92Z" transform="translate(-116.16 -13.61)"/><path class="h" d="M322,278.66V314.4a7.41,7.41,0,0,1-7.58,7.59H199.57a7.4,7.4,0,0,1-7.58-7.58V278.66Z" transform="translate(-116.16 -13.61)"/><path class="j" d="M268.89,305.74H200.65c-4.33,0-8.12,3.79-8.66,8.67h0a7.4,7.4,0,0,0,7.58,7.58H314.39A7.41,7.41,0,0,0,322,314.4V278.66H284.06v11.91A14.81,14.81,0,0,1,268.89,305.74Z" transform="translate(-116.16 -13.61)"/><rect class="h" x="238.52" y="276.05" width="43.66" height="32.17"/><path class="j" d="M387,289.49v15.16c0,6.5-4.33,10.84-10.83,10.84H354.47V322h43.32v-32.5Z" transform="translate(-116.16 -13.61)"/><path class="k" d="M210.94,254.29c-.54.54-1.62,1.62-2.71,1.62a3.7,3.7,0,0,1-3.79-3.79V198a3.79,3.79,0,0,1,7.58,0v54.16C212.57,252.66,211.48,253.75,210.94,254.29Z" transform="translate(-116.16 -13.61)"/><path class="k" d="M210.94,178.46c-.54.55-1.63,1.63-2.71,1.63a3.7,3.7,0,0,1-3.79-3.79V154.63a3.79,3.79,0,0,1,7.58,0V176.3C212.56,176.84,211.48,177.92,210.94,178.46Z" transform="translate(-116.16 -13.61)"/><path class="h" d="M247.22,17.61l-1.62,1.62-8.67,11.92c-14.08,19.5-24.37,40.62-32,63.37H309c-7.58-22.74-18.42-43.32-32-63.36l-8.12-11.38-1.63-1.62C261.31,12.19,252.64,12.19,247.22,17.61Z" transform="translate(-116.16 -13.61)"/><path class="l" d="M230.44,78.81a4.23,4.23,0,0,1-4.34,1.08c-2.16-1.08-2.7-2.71-1.62-4.87,6.5-15.17,14.62-28.71,23.83-42.25,1.62-1.62,3.25-2.16,5.41-1.08,1.63,1.62,2.17,3.25,1.09,5.42C245.6,49.56,238,63.64,231.52,77.73Z" transform="translate(-116.16 -13.61)"/><path class="l" d="M230.44,154.63l-.54-.54a37.92,37.92,0,0,0,0,54.16l.54-.54a7.45,7.45,0,0,0,1.08-9.75c-3.25-4.33-4.33-9.75-4.87-14.62,0-6.5,1.08-13,4.87-19A7.45,7.45,0,0,0,230.44,154.63Z" transform="translate(-116.16 -13.61)"/><path class="j" d="M283.51,207.71l.55.54a37.93,37.93,0,0,0,0-54.16l-.55.54a7.47,7.47,0,0,0-1.08,9.75c3.25,4.33,4.33,9.75,4.88,14.62,0,6.5-1.09,13-4.88,19A7.48,7.48,0,0,0,283.51,207.71Z" transform="translate(-116.16 -13.61)"/><path class="k" d="M368,270.53c-.55.55-1.63,1.63-2.71,1.63a3.7,3.7,0,0,1-3.79-3.79V246.7a3.79,3.79,0,1,1,7.58,0v21.67C369.63,268.91,368.55,270,368,270.53Z" transform="translate(-116.16 -13.61)"/><path class="b" d="M148.66,233.17v78h-32.5V322h43.33V244a21.42,21.42,0,0,0-6.5-15.17,22.72,22.72,0,0,0-6.5-4.33A16,16,0,0,1,148.66,233.17Z" transform="translate(-116.16 -13.61)"/><path class="k" d="M129.7,270.54c-.54.54-1.62,1.62-2.71,1.62a3.7,3.7,0,0,1-3.79-3.79V246.71a3.79,3.79,0,1,1,7.58,0v21.66C131.33,268.91,130.24,270,129.7,270.54Z" transform="translate(-116.16 -13.61)"/><rect class="h" x="0.2" y="276.07" width="43.66" height="32.17"/><path class="j" d="M148.66,289.49v15.17c0,6.5-4.34,10.83-10.83,10.83H116.16V322h43.33v-32.5Z" transform="translate(-116.16 -13.61)"/><path class="j" d="M281.89,94.51H309c-7.58-22.74-18.42-43.32-32-63.36l-8.12-11.38-1.63-1.62a12.65,12.65,0,0,0-9.2-3.79A237.29,237.29,0,0,1,281.89,94.51Z" transform="translate(-116.16 -13.61)"/></svg>