<?xml version="1.0" standalone="no"?>
<!DOCTYPE svg PUBLIC "-//W3C//DTD SVG 20010904//EN"
 "http://www.w3.org/TR/2001/REC-SVG-20010904/DTD/svg10.dtd">
<svg version="1.0" xmlns="http://www.w3.org/2000/svg"
 width="681.000000pt" height="681.000000pt" viewBox="0 0 681.000000 681.000000"
 preserveAspectRatio="xMidYMid meet">
<metadata>
Created by potrace 1.11, written by Peter Selinger 2001-2013
</metadata>
<g transform="translate(0.000000,681.000000) scale(0.100000,-0.100000)"
fill="#000000" stroke="none">
<path d="M880 6799 c-400 -50 -737 -344 -843 -734 -30 -109 -37 -226 -37 -586
l0 -356 141 58 c248 104 525 177 799 211 134 17 523 17 660 0 520 -64 998
-255 1416 -564 57 -43 113 -78 125 -78 11 0 82 15 157 34 702 176 1210 256
1737 272 644 20 1067 -121 1199 -401 113 -237 6 -569 -310 -965 -111 -139
-521 -542 -704 -692 -293 -239 -592 -459 -891 -654 -74 -48 -137 -92 -141 -98
-4 -6 -10 -36 -13 -66 -77 -672 -370 -1285 -840 -1755 -131 -131 -288 -261
-432 -358 l-93 -62 1513 -3 c1567 -3 1612 -2 1751 38 395 114 675 442 726 850
7 56 10 894 10 2525 0 2080 -2 2454 -15 2535 -34 225 -131 415 -292 571 -163
159 -356 251 -582 279 -102 12 -4942 12 -5041 -1z"/>
<path d="M4465 4694 c-194 -15 -397 -45 -635 -95 -147 -30 -422 -97 -429 -104
-2 -2 26 -37 61 -78 230 -263 412 -564 533 -882 21 -55 40 -102 41 -104 7 -8
260 171 434 308 407 320 619 590 593 756 -13 85 -88 146 -218 179 -60 15 -287
27 -380 20z"/>
</g>
</svg>
