<?xml version="1.0" standalone="no"?>
<!DOCTYPE svg PUBLIC "-//W3C//DTD SVG 20010904//EN"
 "http://www.w3.org/TR/2001/REC-SVG-20010904/DTD/svg10.dtd">
<svg version="1.0" xmlns="http://www.w3.org/2000/svg"
 width="512.000000pt" height="512.000000pt" viewBox="0 0 512.000000 512.000000"
 preserveAspectRatio="xMidYMid meet">
<metadata>
Created by potrace 1.11, written by Peter Selinger 2001-2013
</metadata>
<g transform="translate(0.000000,512.000000) scale(0.100000,-0.100000)"
fill="#000000" stroke="none">
<path d="M790 2560 l0 -1820 431 0 430 0 -4 718 c-4 788 -1 739 -81 1382 -30
238 -33 305 -11 270 4 -6 74 -212 156 -458 82 -246 246 -709 366 -1030 l216
-582 260 2 259 3 219 589 c121 325 289 789 373 1033 85 244 157 447 160 450
18 18 15 -32 -18 -299 -80 -652 -86 -757 -86 -1475 l0 -603 435 0 435 0 0
1820 0 1820 -515 0 c-283 0 -515 -2 -515 -4 0 -2 -115 -330 -256 -728 -269
-757 -292 -827 -394 -1180 -37 -126 -68 -218 -75 -218 -12 0 -33 65 -130 400
-34 117 -169 500 -338 960 l-282 765 -518 3 -517 2 0 -1820z"/>
</g>
</svg>
