<?xml version="1.0" standalone="no"?>
<!DOCTYPE svg PUBLIC "-//W3C//DTD SVG 20010904//EN"
 "http://www.w3.org/TR/2001/REC-SVG-20010904/DTD/svg10.dtd">
<svg version="1.0" xmlns="http://www.w3.org/2000/svg"
 width="900.000000pt" height="900.000000pt" viewBox="0 0 900.000000 900.000000"
 preserveAspectRatio="xMidYMid meet">
<metadata>
Created by potrace 1.11, written by Peter Selinger 2001-2013
</metadata>
<g transform="translate(0.000000,900.000000) scale(0.100000,-0.100000)"
fill="#000000" stroke="none">
<path d="M0 6113 l0 -2887 51 60 c124 142 408 409 646 606 182 151 693 524
855 623 51 32 58 46 58 117 0 127 51 420 106 610 136 476 376 887 723 1242
230 234 479 418 761 561 323 163 621 254 985 301 175 22 515 22 688 0 523 -67
1008 -262 1414 -568 59 -45 113 -81 118 -81 6 1 123 29 260 62 879 215 1613
293 2115 226 64 -8 131 -20 150 -25 19 -6 43 -10 52 -10 17 0 18 54 18 1025
l0 1025 -4500 0 -4500 0 0 -2887z"/>
<path d="M7700 6644 c-19 -2 -80 -9 -135 -14 -189 -20 -510 -82 -762 -146
l-142 -37 82 -96 c224 -262 410 -574 518 -866 18 -49 36 -93 39 -98 7 -8 126
72 315 214 415 311 652 565 701 753 35 135 -31 223 -201 267 -69 18 -333 33
-415 23z"/>
<path d="M8825 5262 c-303 -299 -694 -607 -1180 -930 -93 -62 -177 -119 -186
-126 -11 -9 -18 -38 -22 -87 -15 -180 -82 -469 -154 -669 -85 -238 -231 -516
-381 -725 -423 -591 -1083 -1017 -1797 -1160 -431 -86 -915 -72 -1332 40 -359
97 -668 249 -1017 499 -7 5 -91 -11 -217 -42 -938 -234 -1647 -314 -2179 -246
-113 14 -308 57 -342 75 -17 9 -18 -39 -18 -941 l0 -950 4500 0 4500 0 0 2715
c0 1493 -1 2715 -2 2715 -2 0 -79 -76 -173 -168z"/>
<path d="M1570 4161 c-14 -9 -95 -67 -180 -127 -429 -302 -727 -585 -829 -786
-46 -92 -54 -187 -19 -238 34 -50 105 -94 184 -115 145 -37 425 -31 729 16
110 18 506 97 512 103 1 1 -20 45 -48 99 -135 263 -244 605 -284 897 -26 193
-22 183 -65 151z"/>
</g>
</svg>
