<?xml version="1.0" standalone="no"?>
<!DOCTYPE svg PUBLIC "-//W3C//DTD SVG 20010904//EN"
 "http://www.w3.org/TR/2001/REC-SVG-20010904/DTD/svg10.dtd">
<svg version="1.0" xmlns="http://www.w3.org/2000/svg"
 width="256.000000pt" height="256.000000pt" viewBox="0 0 256.000000 256.000000"
 preserveAspectRatio="xMidYMid meet">
<metadata>
Created by potrace 1.11, written by Peter Selinger 2001-2013
</metadata>
<g transform="translate(0.000000,256.000000) scale(0.100000,-0.100000)"
fill="#000000" stroke="none">
<path d="M1196 1963 c-2 -2 -21 -6 -42 -8 -93 -12 -228 -68 -309 -129 -83 -63
-205 -208 -205 -243 0 -7 -3 -13 -8 -13 -8 0 -50 -111 -58 -156 -3 -16 -7 -36
-9 -44 -2 -8 -4 -29 -4 -47 -1 -28 -9 -38 -63 -74 -35 -23 -94 -67 -133 -98
-338 -268 -391 -463 -140 -519 40 -9 232 -8 290 1 17 3 50 8 75 12 78 12 83
13 150 30 36 9 73 18 83 20 10 2 37 -9 60 -25 107 -72 254 -115 387 -112 55 1
141 8 150 12 3 1 10 3 15 5 6 1 12 3 15 4 3 1 15 4 28 7 36 7 147 60 199 95
134 92 244 242 278 379 1 3 5 17 9 31 10 34 14 60 15 86 1 16 31 42 122 104
139 96 290 237 346 325 64 100 56 191 -20 230 -62 33 -113 41 -242 39 -114 -2
-165 -8 -275 -30 -14 -3 -40 -8 -58 -11 -19 -3 -53 -11 -77 -19 -43 -12 -44
-12 -102 27 -48 33 -86 54 -113 63 -3 1 -12 5 -20 8 -38 16 -109 36 -150 43
-49 7 -188 12 -194 7z m979 -199 c21 -28 18 -46 -13 -90 -37 -51 -168 -164
-189 -164 -7 0 -13 -4 -13 -10 0 -5 -4 -10 -9 -10 -9 0 -26 48 -23 63 1 4 -3
7 -8 7 -5 0 -10 5 -10 12 0 10 -56 105 -70 118 -24 23 -53 61 -45 59 6 -2 33
2 60 9 28 6 73 14 100 17 28 4 51 8 53 10 1 1 36 1 77 0 61 -1 78 -5 90 -21z
m-1610 -597 c1 -12 5 -35 8 -52 4 -16 9 -39 11 -50 2 -11 16 -46 30 -79 14
-32 24 -62 21 -66 -4 -6 -52 -16 -135 -26 -58 -7 -137 -5 -163 5 -58 22 -48
67 32 147 32 33 85 77 117 99 33 22 61 44 63 48 5 13 14 -1 16 -26z"/>
</g>
</svg>
