<?xml version="1.0" standalone="no"?>
<!DOCTYPE svg PUBLIC "-//W3C//DTD SVG 20010904//EN"
 "http://www.w3.org/TR/2001/REC-SVG-20010904/DTD/svg10.dtd">
<svg version="1.0" xmlns="http://www.w3.org/2000/svg"
 width="500.000000pt" height="500.000000pt" viewBox="0 0 500.000000 500.000000"
 preserveAspectRatio="xMidYMid meet">
<metadata>
Created by potrace 1.11, written by Peter Selinger 2001-2013
</metadata>
<g transform="translate(0.000000,500.000000) scale(0.100000,-0.100000)"
fill="#000000" stroke="none">
<path d="M2367 3964 c-1 -1 -29 -5 -62 -9 -405 -46 -801 -289 -1031 -633 -149
-223 -221 -436 -248 -729 -2 -29 -13 -39 -82 -85 -43 -29 -83 -56 -89 -60 -9
-7 -66 -48 -141 -103 -16 -11 -80 -62 -144 -114 -662 -542 -737 -952 -188
-1034 117 -18 369 -14 533 8 197 26 335 53 576 113 l107 26 36 -27 c87 -67
273 -161 401 -202 267 -87 555 -93 834 -19 501 134 896 535 1031 1047 11 42
22 92 24 110 12 89 18 132 20 133 0 0 60 40 131 89 879 596 1160 1120 681
1269 -108 34 -164 40 -341 41 -212 0 -335 -13 -640 -70 -59 -12 -251 -57 -303
-72 -51 -14 -55 -14 -75 4 -72 64 -246 164 -377 217 -66 27 -220 71 -275 80
-16 2 -50 8 -75 12 -40 6 -297 14 -303 8z m1919 -368 c201 -61 81 -268 -323
-559 l-91 -66 -23 57 c-60 151 -164 326 -258 432 -44 50 -41 56 29 71 19 4 89
19 155 32 66 14 145 29 175 32 30 4 56 8 58 10 12 11 234 4 278 -9z m-3256
-1240 c0 -39 38 -215 64 -297 24 -76 47 -132 91 -220 l23 -47 -101 -21 c-242
-52 -456 -63 -552 -29 -21 8 -48 26 -59 41 -46 62 -8 146 129 282 88 89 158
145 340 277 60 44 65 45 65 14z"/>
</g>
</svg>
