<?xml version="1.0" standalone="no"?>
<!DOCTYPE svg PUBLIC "-//W3C//DTD SVG 20010904//EN"
 "http://www.w3.org/TR/2001/REC-SVG-20010904/DTD/svg10.dtd">
<svg version="1.0" xmlns="http://www.w3.org/2000/svg"
 width="500.000000pt" height="500.000000pt" viewBox="0 0 500.000000 500.000000"
 preserveAspectRatio="xMidYMid meet">
<metadata>
Created by potrace 1.11, written by Peter Selinger 2001-2013
</metadata>
<g transform="translate(0.000000,500.000000) scale(0.100000,-0.100000)"
fill="#000000" stroke="none">
<path d="M2198 4070 c-294 -62 -531 -187 -747 -394 -257 -248 -411 -572 -446
-939 -5 -55 -11 -69 -28 -79 -40 -20 -284 -196 -387 -278 -232 -185 -394 -351
-496 -506 -83 -127 -94 -159 -94 -278 0 -96 2 -106 28 -144 32 -48 63 -73 128
-106 227 -112 705 -90 1299 59 l130 32 35 -27 c132 -101 345 -195 555 -246
109 -26 425 -31 557 -9 322 53 644 234 860 480 200 229 320 499 363 815 6 44
8 47 97 105 445 291 811 641 919 880 26 57 29 76 29 161 0 85 -3 102 -25 139
-13 23 -48 58 -78 79 -208 143 -671 138 -1306 -15 -136 -32 -167 -37 -181 -27
-213 158 -414 250 -647 297 -137 28 -435 29 -565 1z m2098 -361 c52 -13 94
-57 94 -97 -1 -73 -88 -187 -236 -311 -105 -88 -263 -205 -268 -200 -2 2 -23
48 -46 102 -65 149 -153 289 -245 388 l-34 37 27 5 c15 2 70 14 122 26 247 57
478 77 586 50z m-3266 -1386 c23 -114 65 -243 116 -347 18 -39 32 -72 30 -74
-8 -7 -136 -34 -256 -52 -209 -33 -364 -24 -424 23 -36 29 -39 83 -6 147 34
70 236 261 385 367 128 91 130 92 133 65 1 -15 12 -73 22 -129z"/>
</g>
</svg>
