<svg xmlns="http://www.w3.org/2000/svg" viewBox="0 0 283 470.67"><defs><style>.a{fill:#d5e3ef;}.b{fill:#b0c4d9;}.c{fill:#f44e4a;}.d{fill:#ffb000;}.e{fill:#99b4cd;}.f{fill:#6c9abb;}.g{fill:#70b7e5;}.h{fill:#924eea;}.i{fill:#4c9cd6;}.j{fill:#7e00ff;}.k{fill:#ecf0f9;}.l{fill:#c394ff;}</style></defs><title>Asset 1</title><path class="a" d="M206,264.9H76V158.75A243.72,243.72,0,0,1,121,17.39L129.08,6l1.63-1.62h0a13.73,13.73,0,0,1,19.5,0h0L151.83,6,161,17.39a242.87,242.87,0,0,1,45,140.28Z"/><path class="b" d="M168,110V264.9h38V158.75A240,240,0,0,0,160.94,18.48L152.8,6,151.17,4.4A12.72,12.72,0,0,0,141.94.6,240.8,240.8,0,0,1,168,110Z"/><path class="c" d="M260.13,314.14a12,12,0,0,0-11.91,11.92c0,8.66,10.83,24.91,10.83,26l.54.55s1.08,0,.54-.55c.54-.54,10.83-16.24,10.83-26C272.05,318.48,267.17,313.6,260.13,314.14Z"/><path class="c" d="M21.83,314.15A12,12,0,0,0,9.91,326.06c0,8.67,10.29,24.37,10.83,24.91l.55.55s1.08,0,.54-.55c.54-.54,10.83-16.24,10.83-26C33.74,318.48,28.87,313.6,21.83,314.15Z"/><path class="c" d="M141,356.39a36.07,36.07,0,0,0-35.75,35.74c0,27.09,31.42,74.75,32.5,76.91,1.08,1.08,1.63,1.63,2.71,1.63a9.74,9.74,0,0,0,3.79-2.71c1.08-2.17,33-49.29,32.5-76.91A34.48,34.48,0,0,0,141,356.39Z"/><path class="d" d="M139.9,358.55A18,18,0,0,0,122,376.43c0,14.08,15.71,37.37,16.25,37.91s1.08,1.08,1.63.54c1.08,0,1.08,0,1.62-.54,1.08-1.08,16.25-24.91,16.25-37.91A18,18,0,0,0,139.9,358.55Z"/><polygon class="e" points="238 286.9 206 286.9 206 221.91 238 254.41 238 286.9"/><path class="f" d="M217,268.32V247.91a36.2,36.2,0,0,0-11-26h0v65h33v-11H224.58A7.58,7.58,0,0,1,217,268.32Z"/><path class="a" d="M282,308.9H239v-78a21.46,21.46,0,0,1,6.45-15.16h0a21.13,21.13,0,0,1,30.1,0h0A21.46,21.46,0,0,1,282,230.91Z"/><path class="b" d="M271,220.08V297.9H239v11h43v-78a21.22,21.22,0,0,0-6.6-15.16,22.89,22.89,0,0,0-6.6-4.33A15.67,15.67,0,0,1,271,220.08Z"/><path class="e" d="M98.31,340.91h0c0-7.47,1.6-14.4,4.8-19.74L109,308.9h64l5.87,12.27a44.75,44.75,0,0,1,4.8,19.73H98.31Z"/><path class="f" d="M108.27,308.91l-5,10h35.36A22.31,22.31,0,0,1,158.44,331h0a26.29,26.29,0,0,1,3.3,9.9h22.48c0-7.46-1.6-14.4-4.8-19.73l-5.86-12.27Z"/><polygon class="e" points="44 286.9 76 286.9 76 221.91 44 254.41 44 286.9"/><path class="f" d="M54,268.32V242.91l-11,11v33H76c0-6.6-4.4-11-11-11H61.58A7.59,7.59,0,0,1,54,268.32Z"/><path class="a" d="M0,308.9H43v-78a21.46,21.46,0,0,0-6.45-15.16h0a21.62,21.62,0,0,0-30.1,0h0A21.46,21.46,0,0,0,0,230.91Z"/><circle class="g" cx="140.98" cy="167.91" r="30.64" transform="translate(-77.44 148.87) rotate(-45)"/><path class="h" d="M168.06,195a38.3,38.3,0,1,1,0-54.16A37.92,37.92,0,0,1,168.06,195Zm-43.33-43.33a23,23,0,1,0,32.49,0A22.57,22.57,0,0,0,124.73,151.66Z"/><path class="i" d="M146.39,190.66a23.6,23.6,0,0,1-10.83-39c3.25-3.25,7-4.87,10.83-6.49-7.58-1.09-15.7.54-21.66,6.49a22.57,22.57,0,0,0,0,32.5C130.69,190.12,138.81,191.74,146.39,190.66Z"/><path class="h" d="M206,265.9v35.42a7.58,7.58,0,0,1-7.58,7.58H83.58A7.59,7.59,0,0,1,76,301.32V265.9Z"/><path class="j" d="M152.84,292.9H86.54c-4.27,0-8,3.73-8.53,8.53h0a7.28,7.28,0,0,0,7.46,7.46h113a7.58,7.58,0,0,0,7.58-7.58V265.9H168v11.83A15.16,15.16,0,0,1,152.84,292.9Z"/><rect class="h" x="239" y="276.9" width="44" height="32"/><path class="j" d="M271,276.9v15.17a10.83,10.83,0,0,1-10.83,10.83H239v6h43v-32Z"/><path class="k" d="M94.86,241c-.57.54-1.72,1.62-2.86,1.62a3.81,3.81,0,0,1-4-3.79v-54A3.84,3.84,0,0,1,90.9,181c2.82-.61,5.1,1.17,5.1,3.67v54.16C96.57,239.4,95.43,240.49,94.86,241Z"/><path class="k" d="M94.86,165.92c-.57.57-1.72,1.72-2.86,1.72a3.91,3.91,0,0,1-4-4V140.69a3.84,3.84,0,0,1,2.89-3.78A4,4,0,0,1,96,140.78v22.86C96.57,164.21,95.43,165.35,94.86,165.92Z"/><path class="h" d="M131.23,4,129.6,5.62l-8.67,11.92C106.85,37,96.56,58.16,89,80.9H193c-7.58-22.74-18.42-43.32-32-63.36L152.89,6.16l-1.62-1.62C145.31-1.42,136.64-1.42,131.23,4Z"/><path class="l" d="M114.44,65.55a4.23,4.23,0,0,1-4.34,1.08c-2.16-1.08-2.7-2.71-1.62-4.87,6.5-15.17,14.62-28.71,23.83-42.25,1.62-1.62,3.25-2.16,5.41-1.08,1.63,1.62,2.17,3.25,1.09,5.42C129.6,36.3,122,50.38,115.52,64.47Z"/><path class="l" d="M114.44,141.37l-.54-.54a37.92,37.92,0,0,0,0,54.16l.54-.54a7.45,7.45,0,0,0,1.08-9.75c-3.25-4.33-4.33-9.75-4.87-14.62,0-6.5,1.08-13,4.87-19A7.45,7.45,0,0,0,114.44,141.37Z"/><path class="j" d="M167.51,194.45l.55.54a37.93,37.93,0,0,0,0-54.16l-.55.54a7.47,7.47,0,0,0-1.08,9.75c3.25,4.33,4.33,9.75,4.88,14.62,0,6.5-1.09,13-4.88,19A7.48,7.48,0,0,0,167.51,194.45Z"/><path class="k" d="M251.86,258c-.57.57-1.72,1.72-2.86,1.72a3.91,3.91,0,0,1-4-4v-23a3.85,3.85,0,0,1,2.89-3.78,4,4,0,0,1,5.11,3.87v22.86C253.57,256.28,252.43,257.42,251.86,258Z"/><path class="b" d="M32,220.08V297.9H0v11H43v-78a21.22,21.22,0,0,0-6.6-15.16,22.89,22.89,0,0,0-6.6-4.33A15.67,15.67,0,0,1,32,220.08Z"/><path class="k" d="M13.86,258c-.57.58-1.72,1.72-2.86,1.72a3.91,3.91,0,0,1-4-4V232.77A3.86,3.86,0,0,1,9.89,229,4,4,0,0,1,15,232.85v22.86C15.57,256.28,14.43,257.42,13.86,258Z"/><rect class="h" y="276.9" width="44" height="32"/><path class="j" d="M32,276.9v15.17A10.83,10.83,0,0,1,21.17,302.9H0v6H43v-32Z"/><path class="j" d="M165.89,80.9H193c-7.58-22.74-18.42-43.32-32-63.36L152.89,6.16l-1.63-1.62a12.65,12.65,0,0,0-9.2-3.79A237.29,237.29,0,0,1,165.89,80.9Z"/></svg>