<?xml version="1.0" encoding="UTF-8"?>
<svg width="353px" height="123px" viewBox="0 0 353 123" version="1.1" xmlns="http://www.w3.org/2000/svg" xmlns:xlink="http://www.w3.org/1999/xlink">
    <!-- Generator: Sketch 55.2 (78181) - https://sketchapp.com -->
    <title>mhw</title>
    <desc>Created with Sketch.</desc>
    <g id="mhw" stroke="none" stroke-width="1" fill="none" fill-rule="evenodd">
        <g id="M" fill="#000000">
            <path d="M20,21 L20,122 L0,122 L0,20.852459 L0,20 C-1.3527075e-15,8.954305 8.954305,2.02906125e-15 20,0 L122,0 L122,20.852459 L122,122 L102,122 L102,21 L71,21 L71,121.852459 L51,121.852459 L51,21 L20,21 Z" id="Combined-Shape"></path>
        </g>
        <g id="M" transform="translate(292.000000, 61.000000) rotate(180.000000) translate(-292.000000, -61.000000) translate(231.000000, 0.000000)" fill="#000000">
            <path d="M20,21 L20,122 L0,122 L0,20.852459 L0,20 C-1.3527075e-15,8.954305 8.954305,2.02906125e-15 20,0 L122,0 L122,20.852459 L122,122 L102,122 L102,21 L71,21 L71,121.852459 L51,121.852459 L51,21 L20,21 Z" id="Combined-Shape"></path>
        </g>
        <path d="M203,71 L150,71 L150,122.147541 L130,122.147541 L130,0.147540984 L150,0.147540984 L150,51 L203,51 L203,0 L223,0 L223,122 L203,122 L203,71 Z" id="Combined-Shape" fill="#000000"></path>
    </g>
</svg>