<?xml version="1.0" encoding="UTF-8"?>
<svg width="364px" height="123px" viewBox="0 0 364 123" version="1.1" xmlns="http://www.w3.org/2000/svg" xmlns:xlink="http://www.w3.org/1999/xlink">
    <!-- Generator: Sketch 55.2 (78181) - https://sketchapp.com -->
    <title>mhw</title>
    <desc>Created with Sketch.</desc>
    <g id="mhw" stroke="none" stroke-width="1" fill="none" fill-rule="evenodd">
        <g id="M" fill="#000000">
            <path d="M0,18 C-1.21743675e-15,8.0588745 8.0588745,1.82615513e-15 18,0 L104,0 C113.655368,-1.77366239e-15 121.535141,7.60222943 121.98017,17.147541 L122,17.147541 L122,122.147541 L104,122.147541 L104,18 L70,18 L70,122 L52,122 L52,18 L18,18 L18,122 L0,122 L0,18 Z" id="Combined-Shape"></path>
        </g>
        <g id="M" transform="translate(302.000000, 61.000000) rotate(180.000000) translate(-302.000000, -61.000000) translate(241.000000, 0.000000)" fill="#000000">
            <path d="M0,18 C-1.21743675e-15,8.0588745 8.0588745,1.82615513e-15 18,0 L104,0 C113.655368,-1.77366239e-15 121.535141,7.60222943 121.98017,17.147541 L122,17.147541 L122,122.147541 L104,122.147541 L104,18 L70,18 L70,122 L52,122 L52,18 L18,18 L18,122 L0,122 L0,18 Z" id="Combined-Shape"></path>
        </g>
        <path d="M208,69 L153,69 L153,122.147541 L135,122.147541 L135,0.147540984 L153,0.147540984 L153,51 L208,51 L208,0 L226,0 L226,122 L208,122 L208,69 Z" id="Combined-Shape" fill="#000000"></path>
    </g>
</svg>