<?xml version="1.0" encoding="UTF-8"?>
<svg width="368px" height="123px" viewBox="0 0 368 123" version="1.1" xmlns="http://www.w3.org/2000/svg" xmlns:xlink="http://www.w3.org/1999/xlink">
    <!-- Generator: Sketch 55.2 (78181) - https://sketchapp.com -->
    <title>Group</title>
    <desc>Created with Sketch.</desc>
    <g id="Page-1" stroke="none" stroke-width="1" fill="none" fill-rule="evenodd">
        <g id="Artboard" transform="translate(-119.000000, -498.000000)" fill="#000000">
            <g id="Group" transform="translate(117.000000, 498.000000)">
                <g id="mhw-copy" transform="translate(110.000000, 0.000000)">
                    <g id="M">
                        <path d="M0,18 C-1.21743675e-15,8.0588745 8.0588745,1.82615513e-15 18,0 L104,0 C113.655368,-1.77366239e-15 121.535141,7.60222943 121.98017,17.147541 L122,17.147541 L122,122.147541 L104,122.147541 L104,18 L70,18 L70,122 L52,122 L52,18 L18,18 L18,122 L0,122 L0,18 Z" id="Combined-Shape"></path>
                    </g>
                    <g id="M" transform="translate(199.000000, 62.000000) rotate(180.000000) translate(-199.000000, -62.000000) translate(138.000000, 1.000000)">
                        <path d="M0,18 C-1.21743675e-15,8.0588745 8.0588745,1.82615513e-15 18,0 L104,0 C113.655368,-1.77366239e-15 121.535141,7.60222943 121.98017,17.147541 L122,17.147541 L122,122.147541 L104,122.147541 L104,18 L70,18 L70,122 L52,122 L52,18 L18,18 L18,122 L0,122 L0,18 Z" id="Combined-Shape"></path>
                    </g>
                </g>
                <polygon id="Star" points="44 85 18.1374489 98.5967478 23.0767566 69.7983739 2.15351328 49.4032522 31.0687244 45.2016261 44 19 56.9312756 45.2016261 85.8464867 49.4032522 64.9232434 69.7983739 69.8625511 98.5967478"></polygon>
            </g>
        </g>
    </g>
</svg>