<?xml version="1.0" encoding="UTF-8"?>
<svg width="360px" height="123px" viewBox="0 0 360 123" version="1.1" xmlns="http://www.w3.org/2000/svg" xmlns:xlink="http://www.w3.org/1999/xlink">
    <!-- Generator: Sketch 55.2 (78181) - https://sketchapp.com -->
    <title>Group 2</title>
    <desc>Created with Sketch.</desc>
    <g id="Page-1" stroke="none" stroke-width="1" fill="none" fill-rule="evenodd">
        <g id="Artboard" transform="translate(-64.000000, -609.000000)" fill="#000000">
            <g id="Group-2" transform="translate(64.000000, 609.000000)">
                <g id="Group" transform="translate(100.000000, 0.000000)">
                    <g id="mhw-copy">
                        <g id="M">
                            <path d="M0,18 L0,10 C-6.76353751e-16,4.4771525 4.4771525,1.01453063e-15 10,0 L112,0 C117.522847,-1.01453063e-15 122,4.4771525 122,10 L122,17.147541 L122,122.147541 L104,122.147541 L104,18 L70,18 L70,122 L52,122 L52,18 L18,18 L18,122 L0,122 L0,18 Z" id="Combined-Shape"></path>
                        </g>
                        <g id="M" transform="translate(199.000000, 61.500000) rotate(180.000000) translate(-199.000000, -61.500000) translate(138.000000, -0.000000)">
                            <path d="M0,18 L0,10 C-6.76353751e-16,4.4771525 4.4771525,1.01453063e-15 10,0 L112,0 C117.522847,-1.01453063e-15 122,4.4771525 122,10 L122,17.147541 L122,122.147541 L104,122.147541 L104,18 L70,18 L70,122 L52,122 L52,18 L18,18 L18,122 L0,122 L0,18 Z" id="Combined-Shape"></path>
                        </g>
                    </g>
                </g>
                <rect id="Rectangle" x="0" y="105" width="79" height="18"></rect>
            </g>
        </g>
    </g>
</svg>