<?xml version="1.0" encoding="UTF-8"?>
<svg width="260px" height="123px" viewBox="0 0 260 123" version="1.1" xmlns="http://www.w3.org/2000/svg" xmlns:xlink="http://www.w3.org/1999/xlink">
    <!-- Generator: Sketch 55.2 (78181) - https://sketchapp.com -->
    <title>Group 2</title>
    <desc>Created with Sketch.</desc>
    <g id="Page-1" stroke="none" stroke-width="1" fill="none" fill-rule="evenodd">
        <g id="Artboard" transform="translate(-164.000000, -793.000000)" fill="#000000">
            <g id="Group-2" transform="translate(164.000000, 793.000000)">
                <g id="Group">
                    <g id="mhw-copy">
                        <g id="M">
                            <path d="M0,14 L0,10 C-6.76353751e-16,4.4771525 4.4771525,1.01453063e-15 10,0 L112,0 C117.522847,-1.01453063e-15 122,4.4771525 122,10 L122,14 L122,122 L108,122 L108,14 L68,14 L68,122 L54,122 L54,14 L14,14 L14,122 L0,122 L0,14 Z" id="Combined-Shape"></path>
                        </g>
                        <g id="M" transform="translate(201.000000, 61.500000) rotate(180.000000) translate(-201.000000, -61.500000) translate(142.000000, -0.000000)">
                            <path d="M0,14 L0,10 C-6.76353751e-16,4.4771525 4.4771525,1.01453063e-15 10,0 L108,0 C113.522847,-1.01453063e-15 118,4.4771525 118,10 L118,14 L66,14 L66,122 L52,122 L52,14 L14,14 L14,122 L0,122 L0,14 Z M104,14.147541 L118,14.147541 L118,122.147541 L104,122.147541 L104,14.147541 Z" id="Combined-Shape"></path>
                        </g>
                    </g>
                </g>
            </g>
        </g>
    </g>
</svg>